<svg width="21" height="24" viewBox="0 0 21 24" fill="none" xmlns="http://www.w3.org/2000/svg">
<path d="M1.00185 8.83226V22.4082H12.4007C12.4007 20.5539 12.4007 17.8346 12.4007 15.0981M1.00185 8.83226V5.69935C1.00285 2.04424 0.706922 0.999968 7.1758 1C12.4007 1.00003 12.4007 2.56645 12.4007 5.69935C12.4007 6.34174 12.4007 7.4552 12.4007 8.83226M1.00185 8.83226H12.4007M12.4007 8.83226C12.4007 10.6264 12.4007 12.8679 12.4007 15.0981M12.4007 15.0981C13.8256 14.75 16.2014 14.5759 16.2004 17.7088V20.5C16.2013 23.1107 20 23.6329 20 20.5V12.4873M15.2514 3.61069L18.2926 6.95519M18.2926 6.95519L20 8.83226V12.4873M18.2926 6.95519C15.7264 7.7879 14.3015 13.0094 20 12.4873" stroke="#F9F9F9" stroke-width="2" stroke-linecap="round" stroke-linejoin="round"/>
</svg>
