<svg width="19" height="25" viewBox="0 0 19 25" fill="none" xmlns="http://www.w3.org/2000/svg">
<path d="M1.16663 15.625L0.298383 15.1288C0.121524 15.4383 0.122794 15.8186 0.301716 16.1269C0.480638 16.4352 0.810156 16.625 1.16663 16.625L1.16663 15.625ZM9.49996 1.04163H10.5C10.5 0.588193 10.1949 0.191508 9.75663 0.0751263C9.31838 -0.0412555 8.85668 0.151797 8.63172 0.545487L9.49996 1.04163ZM9.49996 15.625H10.5C10.5 15.0727 10.0522 14.625 9.49996 14.625V15.625ZM9.49996 23.9583H8.49996C8.49996 24.4117 8.80505 24.8084 9.24329 24.9248C9.68154 25.0412 10.1432 24.8481 10.3682 24.4544L9.49996 23.9583ZM17.8333 9.37496L18.7015 9.8711C18.8784 9.56159 18.8771 9.18135 18.6982 8.87303C18.5193 8.56472 18.1898 8.37496 17.8333 8.37496V9.37496ZM9.49996 9.37496H8.49996C8.49996 9.92724 8.94768 10.375 9.49996 10.375V9.37496ZM2.03487 16.1211L10.3682 1.53776L8.63172 0.545487L0.298383 15.1288L2.03487 16.1211ZM9.49996 14.625H1.16663V16.625H9.49996V14.625ZM10.5 23.9583V15.625H8.49996V23.9583H10.5ZM16.9651 8.87882L8.63172 23.4622L10.3682 24.4544L18.7015 9.8711L16.9651 8.87882ZM9.49996 10.375H17.8333V8.37496H9.49996V10.375ZM8.49996 1.04163V9.37496H10.5V1.04163H8.49996Z" fill="#F9F9F9"/>
</svg>
