<svg width="25" height="25" viewBox="0 0 25 25" fill="none" xmlns="http://www.w3.org/2000/svg">
<path d="M4.16666 15.6251L3.29841 15.1289C3.12155 15.4384 3.12282 15.8187 3.30175 16.127C3.48067 16.4353 3.81019 16.6251 4.16666 16.6251V15.6251ZM12.5 1.04175H13.5C13.5 0.588315 13.1949 0.19163 12.7567 0.0752484C12.3184 -0.0411334 11.8567 0.151919 11.6317 0.545609L12.5 1.04175ZM12.5 15.6251H13.5C13.5 15.0728 13.0523 14.6251 12.5 14.6251V15.6251ZM12.5 23.9584H11.5C11.5 24.4118 11.8051 24.8085 12.2433 24.9249C12.6816 25.0413 13.1433 24.8482 13.3682 24.4546L12.5 23.9584ZM20.8333 9.37508L21.7016 9.87122C21.8784 9.56172 21.8772 9.18147 21.6982 8.87315C21.5193 8.56484 21.1898 8.37508 20.8333 8.37508V9.37508ZM12.5 9.37508H11.5C11.5 9.92737 11.9477 10.3751 12.5 10.3751V9.37508ZM5.0349 16.1212L13.3682 1.53789L11.6317 0.545609L3.29841 15.1289L5.0349 16.1212ZM12.5 14.6251H4.16666V16.6251H12.5V14.6251ZM13.5 23.9584V15.6251H11.5V23.9584H13.5ZM19.9651 8.87894L11.6317 23.4623L13.3682 24.4546L21.7016 9.87122L19.9651 8.87894ZM12.5 10.3751H20.8333V8.37508H12.5V10.3751ZM11.5 1.04175V9.37508H13.5V1.04175H11.5Z" fill="#84878A"/>
</svg>
