<svg width="25" height="25" viewBox="0 0 25 25" fill="none" xmlns="http://www.w3.org/2000/svg">
<path d="M8.33334 8.59367C9.28212 6.23907 12.5 2.08325 12.5 2.08325C12.5 2.08325 15.7179 6.23907 16.6667 8.59367C18.2011 12.4016 15.625 18.7499 15.625 18.7499H9.375C9.375 18.7499 6.79895 12.4016 8.33334 8.59367Z" stroke="#84878A" stroke-width="2"/>
<path d="M15.625 18.75H20.8333L17.1875 12.5" stroke="#84878A" stroke-width="2"/>
<path d="M9.37502 18.75H4.16669L7.81252 12.5" stroke="#84878A" stroke-width="2"/>
<path d="M10.4388 20.6101C10.7114 19.7281 11.1244 18.75 11.1244 18.75H13.8668C13.8668 18.75 14.2245 19.7506 14.5524 20.6101C14.8802 21.4697 12.5 23.4375 12.5 23.4375C12.5 23.4375 10.1663 21.4921 10.4388 20.6101Z" stroke="#84878A" stroke-width="2"/>
<path d="M8.33331 8.33325C8.33331 8.33325 9.89581 9.37492 12.5 9.37492C15.1041 9.37492 16.6666 8.33325 16.6666 8.33325" stroke="#84878A" stroke-width="2"/>
</svg>
