<svg width="26" height="26" viewBox="0 0 26 26" fill="none" xmlns="http://www.w3.org/2000/svg">
<path d="M12.8267 13.3477L10.617 11.1379" stroke="white" stroke-width="2" stroke-linecap="round" stroke-linejoin="round"/>
<path d="M20.1924 20.7131L18.7192 19.24" stroke="white" stroke-width="2" stroke-linecap="round" stroke-linejoin="round"/>
<path d="M22.7703 17.3987L17.6143 18.1353L16.8777 23.2912L12.4583 18.8718L13.1949 13.7158L18.3508 12.9793L22.7703 17.3987Z" stroke="white" stroke-width="2"/>
<path d="M15.4665 9.23442C15.2125 8.5862 14.8236 7.97862 14.2998 7.45484C12.2658 5.42086 8.96809 5.42086 6.93411 7.45484C4.90013 9.48882 4.90013 12.7866 6.93411 14.8205C7.45789 15.3443 8.06547 15.7332 8.7137 15.9872" stroke="white" stroke-width="2" stroke-linecap="round" stroke-linejoin="round"/>
<path d="M19.5033 8.14415C19.0568 6.81555 18.3044 5.56713 17.2461 4.5088C13.5849 0.847634 7.64902 0.847634 3.98785 4.5088C0.326688 8.16997 0.326688 14.1059 3.98785 17.7671C5.04619 18.8254 6.2946 19.5778 7.62321 20.0243" stroke="white" stroke-width="2" stroke-linecap="round" stroke-linejoin="round"/>
</svg>
