<svg width="40" height="40" viewBox="0 0 40 40" fill="none" xmlns="http://www.w3.org/2000/svg">
<circle cx="20" cy="20" r="20" fill="#F9F9F9"/>
<circle cx="20" cy="20" r="15.5556" fill="#03A47A"/>
<path fill-rule="evenodd" clip-rule="evenodd" d="M18.0215 21.539V28.7946H22.3089V21.539C24.8191 21.3741 29.7844 20.6375 29.5645 19.0105C29.3447 17.3835 24.6359 16.7202 22.3089 16.592V14.7231L27.5308 14.7781V11.1503H12.7997V14.7231H18.0215V16.592C15.4748 16.6836 10.3812 17.2955 10.3812 19.0105C10.3812 20.7255 15.4748 21.4107 18.0215 21.539ZM11.6454 19.0105C11.8653 18.0608 15.9878 17.4055 18.0215 17.1966V19.835H22.3089V17.1966C24.5259 17.4348 28.872 18.131 28.5202 19.0105C28.1684 19.89 22.8036 20.1831 20.1652 20.2198C17.2337 20.2124 11.4255 19.9602 11.6454 19.0105Z" fill="white"/>
</svg>
