<svg width="21" height="20" viewBox="0 0 21 20" fill="none" xmlns="http://www.w3.org/2000/svg">
<path d="M13.9036 0.630632C14.1014 0.115009 14.6826 -0.146828 15.177 0.0991746C16.6932 0.853487 18.0092 1.96585 19.0075 3.34595C20.2018 4.99699 20.8899 6.95987 20.9879 8.99523C21.0858 11.0306 20.5894 13.0505 19.5592 14.8086C18.529 16.5667 17.0094 17.987 15.1859 18.8964C13.3623 19.8058 11.3136 20.1649 9.28947 19.93C7.26534 19.6951 5.3533 18.8762 3.78652 17.5734C2.21974 16.2705 1.06591 14.5399 0.465749 12.5925C-0.0359296 10.9648 -0.132626 9.24436 0.177126 7.57947C0.278145 7.03651 0.836932 6.72988 1.36783 6.88208L1.44007 6.90278C1.97097 7.05498 2.27165 7.60855 2.1834 8.15374C1.97702 9.42864 2.06584 10.7386 2.44884 11.9814C2.9304 13.5438 3.85619 14.9324 5.11332 15.9778C6.37046 17.0232 7.90461 17.6802 9.52871 17.8687C11.1528 18.0572 12.7967 17.769 14.2598 17.0394C15.723 16.3097 16.9422 15.1701 17.7688 13.7594C18.5954 12.3488 18.9937 10.7281 18.9151 9.09499C18.8365 7.46188 18.2844 5.88693 17.3261 4.56219C16.564 3.50856 15.5711 2.64942 14.4286 2.04719C13.94 1.78965 13.6788 1.21641 13.8767 0.700786L13.9036 0.630632Z" fill="#F9F9F9"/>
</svg>
