<svg width="28" height="25" viewBox="0 0 28 25" fill="none" xmlns="http://www.w3.org/2000/svg">
<path d="M5.33164 9.90442C5.87978 7.99285 7.01901 6.30387 8.58605 5.07957C10.1531 3.85526 12.0675 3.15847 14.0549 3.08907C16.0423 3.01967 18.0006 3.58122 19.6493 4.69323C21.2979 5.80525 22.5522 7.41064 23.2323 9.27931" stroke="#84878A" stroke-width="2" stroke-linecap="round" stroke-linejoin="round"/>
<path d="M23.0595 16.1607C22.3511 17.8396 21.1708 19.2769 19.6618 20.2983C18.1528 21.3197 16.3799 21.8813 14.558 21.915C12.7361 21.9488 10.9436 21.4532 9.39773 20.4885C7.8519 19.5237 6.6192 18.1311 5.8491 16.4797" stroke="#84878A" stroke-width="2" stroke-linecap="round" stroke-linejoin="round"/>
<path d="M7.95209 15.5572L5.27818 15.9537L3.99105 18.3307" stroke="#84878A" stroke-width="2" stroke-linecap="round" stroke-linejoin="round"/>
<path d="M20.889 10.1353L23.5629 9.73878L24.85 7.36174" stroke="#84878A" stroke-width="2" stroke-linecap="round" stroke-linejoin="round"/>
</svg>
