<svg width="25" height="25" viewBox="0 0 25 25" fill="none" xmlns="http://www.w3.org/2000/svg">
<path d="M8.33321 8.59379C9.28199 6.23919 12.4999 2.08337 12.4999 2.08337C12.4999 2.08337 15.7178 6.23919 16.6665 8.59379C18.2009 12.4017 15.6249 18.75 15.6249 18.75H9.37488C9.37488 18.75 6.79883 12.4017 8.33321 8.59379Z" stroke="white" stroke-width="2"/>
<path d="M15.6249 18.75H20.8333L17.1874 12.5" stroke="white" stroke-width="2"/>
<path d="M9.37508 18.75H4.16675L7.81258 12.5" stroke="white" stroke-width="2"/>
<path d="M10.4389 20.6101C10.7115 19.7281 11.1245 18.75 11.1245 18.75H13.8669C13.8669 18.75 14.2246 19.7506 14.5524 20.6101C14.8803 21.4697 12.5001 23.4375 12.5001 23.4375C12.5001 23.4375 10.1663 21.4921 10.4389 20.6101Z" stroke="white" stroke-width="2"/>
<path d="M8.33325 8.33337C8.33325 8.33337 9.89575 9.37504 12.4999 9.37504C15.1041 9.37504 16.6666 8.33337 16.6666 8.33337" stroke="white" stroke-width="2"/>
</svg>
