<svg width="26" height="26" viewBox="0 0 26 26" fill="none" xmlns="http://www.w3.org/2000/svg">
<path d="M12.8267 13.3477L10.617 11.1379" stroke="#84878A" stroke-width="2" stroke-linecap="round" stroke-linejoin="round"/>
<path d="M20.1923 20.7131L18.7192 19.24" stroke="#84878A" stroke-width="2" stroke-linecap="round" stroke-linejoin="round"/>
<path d="M22.7703 17.3987L17.6143 18.1353L16.8778 23.2912L12.4584 18.8718L13.1949 13.7158L18.3509 12.9793L22.7703 17.3987Z" stroke="#84878A" stroke-width="2"/>
<path d="M15.4664 9.23442C15.2124 8.5862 14.8235 7.97862 14.2997 7.45484C12.2658 5.42086 8.96803 5.42086 6.93405 7.45484C4.90007 9.48882 4.90007 12.7866 6.93405 14.8205C7.45783 15.3443 8.06541 15.7332 8.71364 15.9872" stroke="#84878A" stroke-width="2" stroke-linecap="round" stroke-linejoin="round"/>
<path d="M19.5032 8.14415C19.0568 6.81555 18.3044 5.56713 17.246 4.5088C13.5849 0.847634 7.64896 0.847634 3.98779 4.5088C0.326627 8.16997 0.326627 14.1059 3.98779 17.7671C5.04613 18.8254 6.29454 19.5778 7.62315 20.0243" stroke="#84878A" stroke-width="2" stroke-linecap="round" stroke-linejoin="round"/>
</svg>
