<svg width="40" height="40" viewBox="0 0 40 40" fill="none" xmlns="http://www.w3.org/2000/svg">
<circle cx="20" cy="20" r="20" fill="#F9F9F9"/>
<circle cx="19.9999" cy="20" r="15.5556" fill="#2873C9"/>
<path fill-rule="evenodd" clip-rule="evenodd" d="M23.5058 6.61957V8.55114C23.5058 8.55201 23.5058 8.55321 23.5057 8.55472C23.5047 8.59756 23.4975 8.88769 23.9951 8.93745C24.536 8.99154 31.7472 11.8734 31.8502 20.0375C31.9326 26.5688 26.4933 30.1761 23.7633 31.1634C23.6775 31.2063 23.5058 31.3539 23.5058 31.6012V33.3782C23.5573 33.507 23.6346 33.6358 24.0724 33.5327C24.5008 33.4319 33.9363 30.571 34.1423 20.0375C34.2969 12.131 27.5063 7.12607 23.8664 6.41354C23.8631 6.41314 23.8599 6.41272 23.8565 6.4123C23.7186 6.39492 23.5058 6.36808 23.5058 6.61957ZM16.4742 6.63363V8.5652L16.4743 8.56877C16.4754 8.61161 16.4825 8.90175 15.9849 8.95151C15.4441 9.00559 8.23288 11.8875 8.12987 20.0516C8.04745 26.5829 13.4867 30.1902 16.2167 31.1774C16.3025 31.2203 16.4742 31.368 16.4742 31.6152V33.3923C16.4227 33.521 16.3455 33.6498 15.9076 33.5468C15.4793 33.446 6.04377 30.5851 5.83774 20.0516C5.68309 12.145 12.4737 7.14013 16.1137 6.42759L16.1235 6.42636C16.2614 6.40897 16.4742 6.38214 16.4742 6.63363ZM18.8179 11.0376V12.8662C17.5216 13.055 14.929 14.1178 14.929 16.8581C14.929 20.1929 17.8584 20.7692 18.7262 20.9399L18.7921 20.953V24.9191C18.3801 24.7646 17.5559 24.1208 17.3241 23.3481C17.1145 22.6493 16.968 22.6364 16.6751 22.6107L16.6751 22.6106C16.6442 22.6079 16.6117 22.6051 16.5773 22.6013C16.3918 22.5806 15.6072 22.5927 15.2381 22.6013C14.9719 22.6184 14.4706 22.8794 14.5942 23.7859C14.7487 24.9191 15.8046 26.9022 18.7921 27.1855V29.0656C18.7921 29.2373 18.8797 29.5703 19.23 29.5291H20.7237C21.007 29.5291 21.1667 29.4467 21.1873 29.1171C21.2079 28.7874 21.1959 27.692 21.1873 27.1855C22.5265 27.1168 25.3132 26.1737 25.4367 22.9361C25.5655 19.5623 22.6038 18.9699 21.213 18.8411V15.1325C21.5478 15.3214 21.8311 15.5188 22.2432 16.3945C22.4856 16.9096 22.6295 17.0383 22.9643 17.0383H24.0202C24.3379 17.0383 24.9268 16.8014 24.7414 15.8536C24.5096 14.6689 22.9386 13.0464 21.213 12.9177V10.8316C21.2045 10.72 21.11 10.4865 20.801 10.4453C20.4919 10.404 19.6077 10.4281 19.2042 10.4453C19.0583 10.4796 18.7767 10.6461 18.8179 11.0376ZM17.5044 16.6778C17.5044 17.8345 18.4144 18.1887 18.8179 18.223V15.1325C18.3457 15.1669 17.5044 15.6219 17.5044 16.6778ZM21.1873 21.6226V24.9191C21.6852 24.902 22.7068 24.533 22.7068 23.1936C22.7068 22.1119 21.7024 21.5883 21.1873 21.6226Z" fill="white"/>
</svg>
